<svg width="390" height="844" viewBox="0 0 390 844" fill="none" xmlns="http://www.w3.org/2000/svg">
<g clip-path="url(#clip0_1_2)">
<rect width="390" height="844" fill="white"/>
<rect width="390" height="844" fill="url(#paint0_radial_1_2)"/>
<path d="M124.365 407.2H129.117V411.16L114.905 432.588L106.853 420.488V438H100.649V407.2H105.401L114.905 421.5L124.365 407.2ZM122.913 438V421.808L129.117 417.54V438H122.913ZM142.924 415.648C144.508 415.648 145.99 415.956 147.368 416.572C148.747 417.159 149.95 417.965 150.976 418.992C152.003 420.019 152.81 421.221 153.396 422.6C154.012 423.979 154.32 425.445 154.32 427C154.32 428.555 154.012 430.021 153.396 431.4C152.81 432.779 152.003 433.981 150.976 435.008C149.95 436.035 148.747 436.856 147.368 437.472C145.99 438.059 144.508 438.352 142.924 438.352C141.34 438.352 139.859 438.059 138.48 437.472C137.102 436.856 135.899 436.035 134.872 435.008C133.846 433.981 133.024 432.779 132.408 431.4C131.822 430.021 131.528 428.555 131.528 427C131.528 425.445 131.822 423.979 132.408 422.6C133.024 421.221 133.846 420.019 134.872 418.992C135.899 417.965 137.102 417.159 138.48 416.572C139.859 415.956 141.34 415.648 142.924 415.648ZM142.924 433.116C143.658 433.116 144.332 432.955 144.948 432.632C145.594 432.309 146.151 431.869 146.62 431.312C147.119 430.725 147.5 430.065 147.764 429.332C148.058 428.569 148.204 427.748 148.204 426.868C148.204 426.047 148.058 425.269 147.764 424.536C147.5 423.773 147.119 423.128 146.62 422.6C146.151 422.043 145.594 421.603 144.948 421.28C144.332 420.957 143.658 420.796 142.924 420.796C142.191 420.796 141.502 420.957 140.856 421.28C140.211 421.603 139.639 422.043 139.14 422.6C138.671 423.128 138.29 423.773 137.996 424.536C137.732 425.269 137.6 426.047 137.6 426.868C137.6 427.748 137.732 428.569 137.996 429.332C138.29 430.065 138.671 430.725 139.14 431.312C139.639 431.869 140.211 432.309 140.856 432.632C141.502 432.955 142.191 433.116 142.924 433.116ZM172.564 429.596L177.316 432.72L177.272 432.764C176.245 434.524 174.852 435.903 173.092 436.9C171.361 437.897 169.484 438.396 167.46 438.396C165.876 438.396 164.394 438.103 163.016 437.516C161.637 436.9 160.434 436.079 159.408 435.052C158.381 434.025 157.56 432.823 156.944 431.444C156.357 430.065 156.064 428.599 156.064 427.044C156.064 425.489 156.357 424.023 156.944 422.644C157.56 421.265 158.381 420.063 159.408 419.036C160.434 418.009 161.637 417.203 163.016 416.616C164.394 416 165.876 415.692 167.46 415.692C169.484 415.692 171.361 416.191 173.092 417.188C174.852 418.185 176.245 419.564 177.272 421.324L177.316 421.368L172.52 424.492L172.476 424.448C172.006 423.363 171.317 422.483 170.408 421.808C169.528 421.133 168.545 420.796 167.46 420.796C166.668 420.796 165.92 420.972 165.216 421.324C164.541 421.647 163.954 422.101 163.456 422.688C162.957 423.245 162.561 423.905 162.268 424.668C161.974 425.401 161.828 426.193 161.828 427.044C161.828 427.895 161.974 428.687 162.268 429.42C162.561 430.153 162.957 430.799 163.456 431.356C163.954 431.884 164.541 432.309 165.216 432.632C165.92 432.925 166.668 433.072 167.46 433.072C168.545 433.072 169.528 432.779 170.408 432.192C171.317 431.576 172.006 430.725 172.476 429.64L172.52 429.552L172.564 429.596ZM201.458 416C198.701 418.728 196.193 421.221 193.934 423.48L184.87 432.544V438H179.062V407.2H184.87V424.932L194.198 416H201.458ZM190.898 427.66C192.248 429.009 193.333 430.095 194.154 430.916C195.005 431.737 195.694 432.412 196.222 432.94C196.75 433.468 197.161 433.893 197.454 434.216C197.777 434.509 198.1 434.817 198.422 435.14C198.745 435.433 199.112 435.8 199.522 436.24C199.962 436.68 200.564 437.267 201.326 438H194.11L194.066 437.956L189.314 433.204L190.898 427.66Z" fill="#1877F2"/>
<path d="M227.758 407.2V438H221.422V412.568H212.358V407.2H227.758ZM228.682 407.2H236.822V412.568H231.366L228.682 407.2ZM241.968 415.648C243.523 415.648 244.99 415.956 246.368 416.572C247.747 417.159 248.95 417.965 249.976 418.992C251.003 420.019 251.81 421.221 252.396 422.6C253.012 423.979 253.32 425.46 253.32 427.044C253.32 427.895 253.232 428.716 253.056 429.508L253.012 429.596H241.836L239.02 425.108H247.38C246.97 423.876 246.28 422.864 245.312 422.072C244.374 421.28 243.259 420.884 241.968 420.884C241.176 420.884 240.428 421.045 239.724 421.368C239.02 421.691 238.404 422.131 237.876 422.688C237.378 423.216 236.982 423.861 236.688 424.624C236.395 425.357 236.248 426.164 236.248 427.044C236.248 427.719 236.38 428.423 236.644 429.156C236.908 429.86 237.29 430.505 237.788 431.092C238.287 431.679 238.888 432.177 239.592 432.588C240.296 432.969 241.088 433.16 241.968 433.16C242.76 433.16 243.479 433.057 244.124 432.852C244.799 432.617 245.43 432.119 246.016 431.356L246.06 431.312L246.148 431.356L251.252 433.6L251.164 433.688C250.108 435.155 248.759 436.299 247.116 437.12C245.503 437.941 243.787 438.352 241.968 438.352C240.384 438.352 238.888 438.059 237.48 437.472C236.102 436.885 234.899 436.079 233.872 435.052C232.846 434.025 232.024 432.823 231.408 431.444C230.822 430.065 230.528 428.599 230.528 427.044C230.528 425.46 230.822 423.979 231.408 422.6C232.024 421.221 232.846 420.019 233.872 418.992C234.899 417.965 236.102 417.159 237.48 416.572C238.888 415.956 240.384 415.648 241.968 415.648ZM264.781 424.932C265.749 425.255 266.629 425.592 267.421 425.944C268.242 426.267 268.946 426.663 269.533 427.132C270.149 427.601 270.618 428.173 270.941 428.848C271.293 429.493 271.469 430.271 271.469 431.18V431.224C271.469 433.453 270.721 435.199 269.225 436.46C267.758 437.721 265.69 438.352 263.021 438.352C261.349 438.352 259.706 438.073 258.093 437.516C256.479 436.929 254.969 436.108 253.561 435.052L253.517 435.008L253.561 434.964L256.553 430.256L256.597 430.3C257.477 431.239 258.474 431.957 259.589 432.456C260.703 432.925 261.891 433.16 263.153 433.16C264.883 433.16 265.749 432.603 265.749 431.488C265.749 430.96 265.47 430.564 264.913 430.3C264.355 430.036 263.695 429.787 262.933 429.552C262.786 429.493 262.639 429.464 262.493 429.464C262.375 429.435 262.243 429.391 262.097 429.332C261.217 429.097 260.337 428.848 259.457 428.584C258.577 428.291 257.785 427.909 257.081 427.44C256.377 426.941 255.79 426.325 255.321 425.592C254.881 424.829 254.661 423.861 254.661 422.688V422.6C254.661 421.573 254.851 420.635 255.233 419.784C255.614 418.933 256.157 418.2 256.861 417.584C257.565 416.968 258.415 416.499 259.413 416.176C260.41 415.824 261.51 415.648 262.713 415.648C264.121 415.648 265.543 415.868 266.981 416.308C268.418 416.719 269.753 417.335 270.985 418.156V418.244L268.301 423.128L268.257 423.084C267.582 422.409 266.746 421.881 265.749 421.5C264.751 421.089 263.695 420.884 262.581 420.884C262.375 420.884 262.141 420.899 261.877 420.928C261.613 420.957 261.363 421.031 261.129 421.148C260.923 421.265 260.747 421.427 260.601 421.632C260.454 421.808 260.381 422.072 260.381 422.424C260.381 422.688 260.498 422.937 260.733 423.172C260.967 423.377 261.261 423.583 261.613 423.788C261.994 423.964 262.405 424.14 262.845 424.316C263.314 424.492 263.769 424.653 264.209 424.8C264.297 424.8 264.385 424.815 264.473 424.844C264.59 424.873 264.693 424.903 264.781 424.932ZM288.991 418.288V423.172H285.735L283.007 418.288H288.991ZM282.259 430.476C282.259 431.151 282.494 431.723 282.963 432.192C283.462 432.661 284.049 432.896 284.723 432.896H288.991V438H284.723C283.579 438 282.494 437.795 281.467 437.384C280.47 436.944 279.59 436.357 278.827 435.624C278.094 434.861 277.507 433.981 277.067 432.984C276.627 431.987 276.407 430.916 276.407 429.772V423.172H273.239V418.288H276.407V410.324H282.259V430.476Z" fill="#4A4A4A"/>
</g>
<defs>
<radialGradient id="paint0_radial_1_2" cx="0" cy="0" r="1" gradientUnits="userSpaceOnUse" gradientTransform="translate(195 422) rotate(90) scale(422 417.74)">
<stop offset="0.359275" stop-color="white"/>
<stop offset="0.359375" stop-color="#72AFFF"/>
<stop offset="0.739583" stop-color="#006FFF"/>
</radialGradient>
<clipPath id="clip0_1_2">
<rect width="390" height="844" fill="white"/>
</clipPath>
</defs>
</svg>
